<svg width="310" height="263" viewBox="0 0 310 263" fill="none" xmlns="http://www.w3.org/2000/svg">
<path d="M102.292 68L92.4044 0.799995H105.364L112.18 48.608L118.996 0.799995H131.956L122.068 68H102.292ZM136.697 68V13.568H134.873L136.217 0.799995H149.753V68H136.697ZM185.964 40.16V55.04C185.964 59.904 184.876 63.424 182.7 65.6C180.588 67.712 177.068 68.768 172.14 68.768H167.916C162.988 68.768 159.436 67.712 157.26 65.6C155.148 63.424 154.092 59.904 154.092 55.04V13.76C154.092 8.832 155.148 5.312 157.26 3.2C159.436 1.088 162.988 0.0319996 167.916 0.0319996H172.14C177.068 0.0319996 180.588 1.088 182.7 3.2C184.876 5.312 185.964 8.832 185.964 13.76V29.6L172.908 28.16V13.28C172.908 12.96 172.748 12.8 172.428 12.8H167.628C167.308 12.8 167.148 12.96 167.148 13.28V55.52C167.148 55.84 167.308 56 167.628 56H172.428C172.748 56 172.908 55.84 172.908 55.52V40.16H185.964ZM191.635 68V13.568H189.811L191.155 0.799995H218.611L217.843 13.568H204.691V27.968H216.499L215.731 40.736H204.691V55.232H218.611L217.843 68H191.635ZM98.5889 137.16V152.04C98.5889 156.904 97.5009 160.424 95.3249 162.6C93.2129 164.712 89.6929 165.768 84.7649 165.768H80.5409C75.6129 165.768 72.0609 164.712 69.8849 162.6C67.7729 160.424 66.7169 156.904 66.7169 152.04V110.76C66.7169 105.832 67.7729 102.312 69.8849 100.2C72.0609 98.088 75.6129 97.032 80.5409 97.032H84.7649C89.6929 97.032 93.2129 98.088 95.3249 100.2C97.5009 102.312 98.5889 105.832 98.5889 110.76V126.6L85.5329 125.16V110.28C85.5329 109.96 85.3729 109.8 85.0529 109.8H80.2529C79.9329 109.8 79.7729 109.96 79.7729 110.28V152.52C79.7729 152.84 79.9329 153 80.2529 153H85.0529C85.3729 153 85.5329 152.84 85.5329 152.52V137.16H98.5889ZM134.308 151.656C134.308 156.52 133.22 160.04 131.044 162.216C128.932 164.328 125.412 165.384 120.484 165.384H116.26C111.332 165.384 107.78 164.328 105.604 162.216C103.492 160.04 102.436 156.52 102.436 151.656V111.144C102.436 106.216 103.492 102.696 105.604 100.584C107.78 98.472 111.332 97.416 116.26 97.416H120.484C125.412 97.416 128.932 98.472 131.044 100.584C133.22 102.696 134.308 106.216 134.308 111.144V151.656ZM115.972 110.184C115.652 110.184 115.492 110.344 115.492 110.664V152.136C115.492 152.456 115.652 152.616 115.972 152.616H120.772C121.092 152.616 121.252 152.456 121.252 152.136V110.664C121.252 110.344 121.092 110.184 120.772 110.184H115.972ZM138.154 165L146.122 110.568H144.106L145.45 97.8H167.818L177.706 165H164.746L163.306 155.4H152.554L151.114 165H138.154ZM154.378 142.632H161.482L157.93 118.632L154.378 142.632ZM194.137 143.88V152.52C194.137 152.84 194.297 153 194.617 153H197.401C197.721 153 197.881 152.84 197.881 152.52L197.977 139.752L187.129 135.048C184.697 133.96 183.065 132.84 182.233 131.688C181.465 130.536 181.081 128.776 181.081 126.408V110.76C181.081 105.832 182.137 102.312 184.249 100.2C186.361 98.088 189.785 97.032 194.521 97.032H198.553C203.033 97.224 206.233 98.408 208.153 100.584C210.073 102.696 211.033 106.088 211.033 110.76V122.76L197.977 121.32V110.28C197.977 109.96 197.817 109.8 197.497 109.8H194.617C194.297 109.8 194.137 109.96 194.137 110.28V124.392L204.985 129.096C207.417 130.12 209.017 131.24 209.785 132.456C210.617 133.608 211.033 135.368 211.033 137.736V152.04C211.033 156.712 210.073 160.136 208.153 162.312C206.233 164.424 203.033 165.576 198.553 165.768H194.713C189.849 165.768 186.361 164.712 184.249 162.6C182.137 160.424 181.081 156.904 181.081 152.04V143.88H194.137ZM222.364 165V110.568H213.436V97.8H244.252V110.568H235.42V165H222.364ZM13.621 240.88V249.52C13.621 249.84 13.781 250 14.101 250H16.885C17.205 250 17.365 249.84 17.365 249.52L17.461 236.752L6.613 232.048C4.181 230.96 2.549 229.84 1.717 228.688C0.949 227.536 0.565 225.776 0.565 223.408V207.76C0.565 202.832 1.621 199.312 3.733 197.2C5.845 195.088 9.269 194.032 14.005 194.032H18.037C22.517 194.224 25.717 195.408 27.637 197.584C29.557 199.696 30.517 203.088 30.517 207.76V219.76L17.461 218.32V207.28C17.461 206.96 17.301 206.8 16.981 206.8H14.101C13.781 206.8 13.621 206.96 13.621 207.28V221.392L24.469 226.096C26.901 227.12 28.501 228.24 29.269 229.456C30.101 230.608 30.517 232.368 30.517 234.736V249.04C30.517 253.712 29.557 257.136 27.637 259.312C25.717 261.424 22.517 262.576 18.037 262.768H14.197C9.333 262.768 5.845 261.712 3.733 259.6C1.621 257.424 0.565 253.904 0.565 249.04V240.88H13.621ZM44.6208 262V236.176L33.3888 194.8H46.3488L51.1488 217.552L55.8528 194.8H68.8128L57.5808 236.176V262H44.6208ZM74.494 262V207.568H72.67L74.014 194.8H87.55L98.494 231.28V194.8H111.55V262H98.494L87.55 225.52V262H74.494ZM149.116 248.272C149.116 253.136 148.028 256.656 145.852 258.832C143.74 260.944 140.22 262 135.292 262H117.244V207.568H115.42L116.764 194.8H135.292C140.22 194.8 143.74 195.856 145.852 197.968C148.028 200.08 149.116 203.6 149.116 208.528V248.272ZM135.58 249.232C135.9 249.232 136.06 249.072 136.06 248.752V208.048C136.06 207.728 135.9 207.568 135.58 207.568H130.3V249.232H135.58ZM154.744 262V207.568H152.92L154.264 194.8H167.8V262H154.744ZM204.011 234.16V249.04C204.011 253.904 202.923 257.424 200.747 259.6C198.635 261.712 195.115 262.768 190.187 262.768H185.963C181.035 262.768 177.483 261.712 175.307 259.6C173.195 257.424 172.139 253.904 172.139 249.04V207.76C172.139 202.832 173.195 199.312 175.307 197.2C177.483 195.088 181.035 194.032 185.963 194.032H190.187C195.115 194.032 198.635 195.088 200.747 197.2C202.923 199.312 204.011 202.832 204.011 207.76V223.6L190.955 222.16V207.28C190.955 206.96 190.795 206.8 190.475 206.8H185.675C185.355 206.8 185.195 206.96 185.195 207.28V249.52C185.195 249.84 185.355 250 185.675 250H190.475C190.795 250 190.955 249.84 190.955 249.52V234.16H204.011ZM206.92 262L214.888 207.568H212.872L214.216 194.8H236.584L246.472 262H233.512L232.072 252.4H221.32L219.88 262H206.92ZM223.144 239.632H230.248L226.696 215.632L223.144 239.632ZM255.411 262V207.568H246.483V194.8H277.299V207.568H268.467V262H255.411ZM282.994 262V207.568H281.17L282.514 194.8H309.97L309.202 207.568H296.05V221.968H307.858L307.09 234.736H296.05V249.232H309.97L309.202 262H282.994Z" fill="white"/>
</svg>
